<svg width="415" height="401" viewBox="0 0 415 401" fill="none" xmlns="http://www.w3.org/2000/svg">
<g filter="url(#filter0_d_1_3794)">
<path d="M210.967 142.022C217.787 134.918 229.149 134.918 235.969 142.022L237.018 143.115C241.264 147.539 247.531 149.389 253.499 147.98L254.942 147.639C264.486 145.386 273.997 151.496 275.916 161.114L276.279 162.934C277.468 168.894 281.693 173.796 287.413 175.851L289.102 176.458C298.262 179.749 302.915 189.936 299.406 199.014L298.647 200.976C296.472 206.604 297.38 212.959 301.046 217.752L302.314 219.409C308.215 227.123 306.625 238.179 298.79 243.917L297.199 245.082C292.318 248.657 289.655 254.519 290.173 260.547L290.347 262.558C291.184 272.29 283.816 280.791 274.063 281.344L272.453 281.435C266.355 281.781 260.889 285.312 258.067 290.73L257.296 292.209C252.751 300.933 241.864 304.128 233.326 299.244L232.071 298.527C226.741 295.478 220.195 295.478 214.865 298.527L213.61 299.244C205.072 304.128 194.185 300.933 189.64 292.209L188.869 290.73C186.047 285.312 180.581 281.781 174.483 281.435L172.873 281.344C163.12 280.791 155.752 272.29 156.59 262.558L156.763 260.547C157.281 254.519 154.618 248.657 149.737 245.082L148.146 243.917C140.311 238.179 138.721 227.123 144.622 219.409L145.89 217.752C149.556 212.959 150.465 206.604 148.289 200.976L147.53 199.014C144.021 189.936 148.674 179.749 157.834 176.458L159.523 175.851C165.243 173.796 169.468 168.894 170.657 162.934L171.02 161.114C172.939 151.496 182.45 145.386 191.994 147.639L193.437 147.98C199.405 149.389 205.672 147.539 209.919 143.115L210.967 142.022Z" fill="url(#paint0_linear_1_3794)"/>
<path d="M210.967 142.022C217.787 134.918 229.149 134.918 235.969 142.022L237.018 143.115C241.264 147.539 247.531 149.389 253.499 147.98L254.942 147.639C264.486 145.386 273.997 151.496 275.916 161.114L276.279 162.934C277.468 168.894 281.693 173.796 287.413 175.851L289.102 176.458C298.262 179.749 302.915 189.936 299.406 199.014L298.647 200.976C296.472 206.604 297.38 212.959 301.046 217.752L302.314 219.409C308.215 227.123 306.625 238.179 298.79 243.917L297.199 245.082C292.318 248.657 289.655 254.519 290.173 260.547L290.347 262.558C291.184 272.29 283.816 280.791 274.063 281.344L272.453 281.435C266.355 281.781 260.889 285.312 258.067 290.73L257.296 292.209C252.751 300.933 241.864 304.128 233.326 299.244L232.071 298.527C226.741 295.478 220.195 295.478 214.865 298.527L213.61 299.244C205.072 304.128 194.185 300.933 189.64 292.209L188.869 290.73C186.047 285.312 180.581 281.781 174.483 281.435L172.873 281.344C163.12 280.791 155.752 272.29 156.59 262.558L156.763 260.547C157.281 254.519 154.618 248.657 149.737 245.082L148.146 243.917C140.311 238.179 138.721 227.123 144.622 219.409L145.89 217.752C149.556 212.959 150.465 206.604 148.289 200.976L147.53 199.014C144.021 189.936 148.674 179.749 157.834 176.458L159.523 175.851C165.243 173.796 169.468 168.894 170.657 162.934L171.02 161.114C172.939 151.496 182.45 145.386 191.994 147.639L193.437 147.98C199.405 149.389 205.672 147.539 209.919 143.115L210.967 142.022Z" fill="black" fill-opacity="0.1"/>
<path d="M223.468 179.397C230.156 183.005 237.527 185.186 245.101 185.799C248.81 192.603 253.923 198.55 260.094 203.236C259.522 211.088 260.648 218.977 263.393 226.354C258.728 232.638 255.457 239.852 253.808 247.503C246.651 250.245 240.142 254.462 234.712 259.871C227.298 258.319 219.636 258.319 212.223 259.871C206.792 254.462 200.284 250.245 193.127 247.503C191.477 239.852 188.208 232.638 183.543 226.354C186.287 218.976 187.414 211.087 186.842 203.235C193.013 198.549 198.126 192.603 201.835 185.799C209.409 185.186 216.78 183.005 223.468 179.397Z" stroke="#929292" stroke-opacity="0.1" stroke-width="75.0669"/>
<path d="M162.929 220.178C162.929 185.87 190.741 158.058 225.049 158.058C259.357 158.058 287.169 185.87 287.169 220.178V221.455C287.169 255.763 259.357 283.575 225.049 283.575C190.741 283.575 162.929 255.763 162.929 221.455V220.178Z" fill="black" fill-opacity="0.04"/>
<path d="M225.049 164.528C255.784 164.528 280.699 189.444 280.699 220.178V221.456C280.699 252.19 255.784 277.105 225.049 277.105C194.315 277.105 169.399 252.19 169.399 221.456V220.178C169.399 189.444 194.315 164.528 225.049 164.528Z" stroke="white" stroke-opacity="0.3" stroke-width="12.9397"/>
<g filter="url(#filter1_ddd_1_3794)">
<path d="M214.611 232.094L202.683 220.043C202.041 219.393 201.169 219.028 200.26 219.028C199.351 219.028 198.479 219.393 197.837 220.043C196.496 221.398 196.496 223.586 197.837 224.94L212.205 239.456C213.546 240.81 215.711 240.81 217.052 239.456L253.419 202.715C254.759 201.36 254.759 199.172 253.419 197.818C252.777 197.168 251.905 196.802 250.996 196.802C250.086 196.802 249.214 197.168 248.572 197.818L214.611 232.094Z" fill="white"/>
<path d="M214.611 232.094L202.683 220.043C202.041 219.393 201.169 219.028 200.26 219.028C199.351 219.028 198.479 219.393 197.837 220.043C196.496 221.398 196.496 223.586 197.837 224.94L212.205 239.456C213.546 240.81 215.711 240.81 217.052 239.456L253.419 202.715C254.759 201.36 254.759 199.172 253.419 197.818C252.777 197.168 251.905 196.802 250.996 196.802C250.086 196.802 249.214 197.168 248.572 197.818L214.611 232.094Z" stroke="#FDFDFD" stroke-width="2.58793"/>
</g>
<path d="M287.344 220.915C287.344 255.611 259.501 283.738 225.154 283.738C190.808 283.738 162.964 255.611 162.964 220.915C162.964 186.219 190.808 158.092 225.154 158.092C259.501 158.092 287.344 186.219 287.344 220.915ZM175.937 220.915C175.937 248.374 197.972 270.633 225.154 270.633C252.337 270.633 274.372 248.374 274.372 220.915C274.372 193.456 252.337 171.197 225.154 171.197C197.972 171.197 175.937 193.456 175.937 220.915Z" fill="url(#paint1_linear_1_3794)" fill-opacity="0.5"/>
</g>
<defs>
<filter id="filter0_d_1_3794" x="121.872" y="125" width="203.192" height="203.192" filterUnits="userSpaceOnUse" color-interpolation-filters="sRGB">
<feFlood flood-opacity="0" result="BackgroundImageFix"/>
<feColorMatrix in="SourceAlpha" type="matrix" values="0 0 0 0 0 0 0 0 0 0 0 0 0 0 0 0 0 0 127 0" result="hardAlpha"/>
<feOffset dy="8"/>
<feGaussianBlur stdDeviation="6"/>
<feComposite in2="hardAlpha" operator="out"/>
<feColorMatrix type="matrix" values="0 0 0 0 0.478431 0 0 0 0 0.478431 0 0 0 0 0.631373 0 0 0 0.4 0"/>
<feBlend mode="normal" in2="BackgroundImageFix" result="effect1_dropShadow_1_3794"/>
<feBlend mode="normal" in="SourceGraphic" in2="effect1_dropShadow_1_3794" result="shape"/>
</filter>
<filter id="filter1_ddd_1_3794" x="0.789919" y="0.760981" width="413.722" height="399.798" filterUnits="userSpaceOnUse" color-interpolation-filters="sRGB">
<feFlood flood-opacity="0" result="BackgroundImageFix"/>
<feColorMatrix in="SourceAlpha" type="matrix" values="0 0 0 0 0 0 0 0 0 0 0 0 0 0 0 0 0 0 127 0" result="hardAlpha"/>
<feOffset dx="17.9771" dy="17.9771"/>
<feGaussianBlur stdDeviation="26.9656"/>
<feColorMatrix type="matrix" values="0 0 0 0 0 0 0 0 0 0 0 0 0 0 0 0 0 0 1 0"/>
<feBlend mode="normal" in2="BackgroundImageFix" result="effect1_dropShadow_1_3794"/>
<feColorMatrix in="SourceAlpha" type="matrix" values="0 0 0 0 0 0 0 0 0 0 0 0 0 0 0 0 0 0 127 0" result="hardAlpha"/>
<feOffset dx="-17.9771" dy="-17.9771"/>
<feGaussianBlur stdDeviation="88.3852"/>
<feColorMatrix type="matrix" values="0 0 0 0 0.498039 0 0 0 0 0.866667 0 0 0 0 0.32549 0 0 0 1 0"/>
<feBlend mode="normal" in2="effect1_dropShadow_1_3794" result="effect2_dropShadow_1_3794"/>
<feColorMatrix in="SourceAlpha" type="matrix" values="0 0 0 0 0 0 0 0 0 0 0 0 0 0 0 0 0 0 127 0" result="hardAlpha"/>
<feOffset/>
<feGaussianBlur stdDeviation="10.8968"/>
<feComposite in2="hardAlpha" operator="out"/>
<feColorMatrix type="matrix" values="0 0 0 0 0.85959 0 0 0 0 0.991856 0 0 0 0 0.578524 0 0 0 0.25 0"/>
<feBlend mode="normal" in2="effect2_dropShadow_1_3794" result="effect3_dropShadow_1_3794"/>
<feBlend mode="normal" in="SourceGraphic" in2="effect3_dropShadow_1_3794" result="shape"/>
</filter>
<linearGradient id="paint0_linear_1_3794" x1="177.962" y1="164.262" x2="296.779" y2="237.56" gradientUnits="userSpaceOnUse">
<stop stop-color="#B6C0D6"/>
<stop offset="1" stop-color="#6B6A7B" stop-opacity="0.84"/>
</linearGradient>
<linearGradient id="paint1_linear_1_3794" x1="225.154" y1="158.092" x2="225.154" y2="283.738" gradientUnits="userSpaceOnUse">
<stop stop-color="white"/>
<stop offset="0.0001" stop-color="white" stop-opacity="0.81"/>
<stop offset="1" stop-color="white" stop-opacity="0"/>
</linearGradient>
</defs>
</svg>
