<svg width="498" height="106" viewBox="0 0 498 106" fill="none" xmlns="http://www.w3.org/2000/svg">
<path d="M54.9232 76.75C54.9232 78.2813 54.9232 80.0313 54.5585 81.3438H23.9241V72.3021H44.6388C43.253 66.1771 37.2719 58.3021 27.3522 58.3021C18.3077 58.3021 11.6703 65.448 10.2844 72.3021L9.77386 76.75L10.2844 81.3438C12.1809 88.7084 18.9642 94.9063 27.3522 94.9063C34.0626 94.9063 39.6789 90.9688 42.4506 86.1563H53.2456C49.3069 96.4375 39.5331 103.948 27.3522 103.948C11.8162 103.948 0 91.4792 0 76.6042C0 61.5105 12.1809 49.1875 27.3522 49.1875C43.1071 49.1875 54.9232 61.875 54.9232 76.75Z" fill="white"/>
<path d="M95.8074 55.5313C101.497 60.7813 104.779 68.948 104.779 76.75C104.779 85.8646 99.892 95.7813 91.5769 100.302C86.3982 103.292 79.3961 103.948 73.488 103.948H60.8695V94.4688H72.9774C78.0102 94.4688 82.0948 94.323 86.3982 91.7709C91.7228 88.9271 94.4945 82.5834 94.4945 76.75C94.4945 71.7188 92.3792 66.4688 88.8782 63.1875C83.5536 58.6667 77.3538 58.6667 71.008 58.6667V90.0938H60.8695V49.1875H73.2692C80.7819 49.1875 89.7534 50.4271 95.8074 55.5313Z" fill="white"/>
<path d="M138.881 49.1875H148.655V103.802H138.663V101.76C135.818 103.146 132.755 103.802 129.691 103.802C123.564 103.802 117.291 101.104 113.717 96.1459C111.019 92.6459 110.362 87.5417 110.362 83.3125V49.1875H120.355V83.3125C120.355 89.3646 122.397 94.4688 129.545 94.4688C135.599 94.4688 138.006 90.75 138.663 85.8646V83.3125H138.881V49.1875Z" fill="white"/>
<path d="M229.214 85.2084C226.589 91.625 222.893 96.5834 218.128 100.083C213.362 103.583 206.214 105.333 196.684 105.333C184.721 105.333 176.066 101.688 170.717 94.3959C165.368 87.007 162.694 75.5348 162.694 59.9792V45.6875C162.694 30.132 165.368 18.7084 170.717 11.4167C176.066 4.02782 184.721 0.333374 196.684 0.333374C206.214 0.333374 213.362 2.08337 218.128 5.58338C222.893 9.08338 226.589 14.0417 229.214 20.4584L225.276 22.3542C223.039 16.7153 219.878 12.3889 215.794 9.37505C211.709 6.26393 205.339 4.70838 196.684 4.70838C191.918 4.70838 187.834 5.34032 184.43 6.6042C181.026 7.77087 177.962 9.81254 175.239 12.7292C172.516 15.6459 170.474 19.875 169.112 25.4167C167.751 30.8612 167.07 37.6181 167.07 45.6875V59.9792C167.07 68.0487 167.751 74.8542 169.112 80.3959C170.474 85.8403 172.516 90.0209 175.239 92.9375C177.962 95.8542 181.026 97.9445 184.43 99.2084C187.834 100.375 191.918 100.958 196.684 100.958C205.339 100.958 211.709 99.4514 215.794 96.4375C219.878 93.3264 223.039 88.9514 225.276 83.3125L229.214 85.2084Z" fill="white"/>
<path d="M303.454 103.875H299.078V61.5834H255.314V103.875H250.938V19.2917H255.314V57.2084H299.078V19.2917H303.454V103.875Z" fill="white"/>
<path d="M338.874 99.5H386.43L356.525 29.0625L324.724 103.875H320.056L356.525 17.8334L392.995 103.875H338.874V99.5Z" fill="white"/>
<path d="M409.638 19.2917H414.014V103.875H409.638V19.2917Z" fill="white"/>
<path d="M441.691 103.875V19.2917H446.067L493.624 95.8542V19.2917H498V103.875H493.624L446.067 27.1667V103.875H441.691Z" fill="white"/>
</svg>
