<svg width="179" height="179" viewBox="0 0 179 179" fill="none" xmlns="http://www.w3.org/2000/svg">
<g clip-path="url(#clip0_240_758)">
<foreignObject x="0.389425" y="1.86825" width="103.218" height="115.598"><div xmlns="http://www.w3.org/1999/xhtml" style="backdrop-filter:blur(4.84px);clip-path:url(#bgblur_1_240_758_clip_path);height:100%;width:100%"></div></foreignObject><g filter="url(#filter0_i_240_758)" data-figma-bg-blur-radius="9.67796">
<path d="M93.3469 36.7255C92.9585 36.0185 92.3914 35.4257 91.7023 35.0063L54.4302 12.2285C53.6992 11.7823 52.8593 11.5462 52.0029 11.5462C51.1465 11.5462 50.3066 11.7823 49.5756 12.2285L12.3035 35.0063C11.6144 35.4257 11.0473 36.0185 10.6589 36.7255L52.0029 61.9959L93.3469 36.7255Z" fill="url(#paint0_linear_240_758)"/>
<path d="M10.6589 36.7255C10.2746 37.4167 10.0681 38.1982 10.0674 38.989V80.3516C10.0678 81.1497 10.2733 81.9343 10.6641 82.6301C11.0548 83.326 11.6178 83.9099 12.299 84.3257L49.5711 107.104C50.3019 107.551 51.1418 107.788 51.9985 107.788L52.0029 61.9959L10.6589 36.7255Z" fill="url(#paint1_linear_240_758)"/>
<path d="M93.3469 36.7255C93.7312 37.4167 93.9288 38.1982 93.9295 38.989V80.3516C93.9291 81.1497 93.7236 81.9343 93.3329 82.6301C92.9421 83.326 92.3791 83.9099 91.6979 84.3257L54.4258 107.104C53.695 107.551 52.8552 107.788 51.9985 107.788L52.0029 61.9959L93.3469 36.7255Z" fill="url(#paint2_linear_240_758)"/>
</g>
<foreignObject x="0.389425" y="1.86825" width="103.218" height="115.598"><div xmlns="http://www.w3.org/1999/xhtml" style="backdrop-filter:blur(4.84px);clip-path:url(#bgblur_2_240_758_clip_path);height:100%;width:100%"></div></foreignObject><g filter="url(#filter1_i_240_758)" data-figma-bg-blur-radius="9.67796">
<path d="M93.3469 36.7255C92.9585 36.0185 92.3914 35.4257 91.7023 35.0063L54.4302 12.2285C53.6992 11.7823 52.8593 11.5462 52.0029 11.5462C51.1465 11.5462 50.3066 11.7823 49.5756 12.2285L12.3035 35.0063C11.6144 35.4257 11.0473 36.0185 10.6589 36.7255L52.0029 61.9959L93.3469 36.7255Z" fill="url(#paint3_linear_240_758)"/>
<path d="M10.6589 36.7255C10.2746 37.4167 10.0681 38.1982 10.0674 38.989V80.3516C10.0678 81.1497 10.2733 81.9343 10.6641 82.6301C11.0548 83.326 11.6178 83.9099 12.299 84.3257L49.5711 107.104C50.3019 107.551 51.1418 107.788 51.9985 107.788L52.0029 61.9959L10.6589 36.7255Z" fill="url(#paint4_linear_240_758)"/>
<path d="M93.3469 36.7255C93.7312 37.4167 93.9288 38.1982 93.9295 38.989V80.3516C93.9291 81.1497 93.7236 81.9343 93.3329 82.6301C92.9421 83.326 92.3791 83.9099 91.6979 84.3257L54.4258 107.104C53.695 107.551 52.8552 107.788 51.9985 107.788L52.0029 61.9959L93.3469 36.7255Z" fill="url(#paint5_linear_240_758)"/>
</g>
<foreignObject x="-23.2617" y="-24" width="150.527" height="110.554"><div xmlns="http://www.w3.org/1999/xhtml" style="backdrop-filter:blur(12px);clip-path:url(#bgblur_3_240_758_clip_path);height:100%;width:100%"></div></foreignObject><g filter="url(#filter2_i_240_758)" data-figma-bg-blur-radius="24">
<path d="M103.266 31.2206C102.784 30.344 102.081 29.609 101.226 29.089L55.0117 0.84598C54.1053 0.292714 53.0639 0 52.002 0C50.94 0 49.8987 0.292714 48.9922 0.84598L2.77751 29.089C1.92305 29.609 1.21992 30.344 0.738281 31.2206L52.002 62.5542L103.266 31.2206Z" fill="#1D1D1D" fill-opacity="0.05"/>
<path d="M103.266 31.2206C102.784 30.344 102.081 29.609 101.226 29.089L55.0117 0.84598C54.1053 0.292714 53.0639 0 52.002 0C50.94 0 49.8987 0.292714 48.9922 0.84598L2.77751 29.089C1.92305 29.609 1.21992 30.344 0.738281 31.2206L52.002 62.5542L103.266 31.2206Z" fill="url(#paint6_linear_240_758)" fill-opacity="0.2"/>
<path d="M52.002 0.599609C52.9536 0.599609 53.8869 0.862596 54.6992 1.3584L100.914 29.6006V29.6016C101.515 29.9674 102.031 30.4536 102.435 31.0254L52.002 61.8506L1.56836 31.0254C1.97171 30.4534 2.48847 29.9675 3.08984 29.6016L3.09082 29.6006L49.3047 1.3584C50.117 0.8626 51.0503 0.599614 52.002 0.599609Z" stroke="url(#paint7_linear_240_758)" stroke-opacity="0.1" stroke-width="1.2"/>
</g>
<foreignObject x="-24" y="7.22449" width="99.9912" height="136.108"><div xmlns="http://www.w3.org/1999/xhtml" style="backdrop-filter:blur(12px);clip-path:url(#bgblur_4_240_758_clip_path);height:100%;width:100%"></div></foreignObject><g filter="url(#filter3_i_240_758)" data-figma-bg-blur-radius="24">
<path d="M0.727882 31.2245C0.2514 32.0815 0.00090868 33.0457 0 34.0262L0 85.3131C0.000550975 86.3026 0.255305 87.2755 0.739838 88.1384C1.22437 89.0012 1.92244 89.7251 2.76711 90.2407L48.9818 118.484C49.8879 119.038 50.9293 119.332 51.9916 119.333V62.5581L0.727882 31.2245Z" fill="#1D1D1D" fill-opacity="0.05"/>
<path d="M0.727882 31.2245C0.2514 32.0815 0.00090868 33.0457 0 34.0262L0 85.3131C0.000550975 86.3026 0.255305 87.2755 0.739838 88.1384C1.22437 89.0012 1.92244 89.7251 2.76711 90.2407L48.9818 118.484C49.8879 119.038 50.9293 119.332 51.9916 119.333V62.5581L0.727882 31.2245Z" fill="url(#paint8_linear_240_758)" fill-opacity="0.2"/>
<path d="M51.3916 62.8944V118.694C50.7683 118.621 50.1623 118.438 49.6045 118.147L49.2949 117.972L3.08008 89.7284C2.32314 89.2664 1.6969 88.6178 1.2627 87.8446C0.82853 87.0714 0.600103 86.1991 0.599609 85.3124V34.0272C0.600229 33.3584 0.731029 32.6978 0.981445 32.0819L51.3916 62.8944Z" stroke="url(#paint9_linear_240_758)" stroke-opacity="0.1" stroke-width="1.2"/>
</g>
<foreignObject x="27.9883" y="7.22449" width="99.9912" height="136.108"><div xmlns="http://www.w3.org/1999/xhtml" style="backdrop-filter:blur(12px);clip-path:url(#bgblur_5_240_758_clip_path);height:100%;width:100%"></div></foreignObject><g filter="url(#filter4_i_240_758)" data-figma-bg-blur-radius="24">
<path d="M103.252 31.2245C103.728 32.0815 103.979 33.0457 103.98 34.0262V85.3131C103.979 86.3026 103.725 87.2755 103.24 88.1384C102.755 89.0012 102.057 89.7251 101.213 90.2407L54.998 118.484C54.0919 119.038 53.0505 119.332 51.9883 119.333V62.5581L103.252 31.2245Z" fill="#1D1D1D" fill-opacity="0.05"/>
<path d="M103.252 31.2245C103.728 32.0815 103.979 33.0457 103.98 34.0262V85.3131C103.979 86.3026 103.725 87.2755 103.24 88.1384C102.755 89.0012 102.057 89.7251 101.213 90.2407L54.998 118.484C54.0919 119.038 53.0505 119.332 51.9883 119.333V62.5581L103.252 31.2245Z" fill="url(#paint10_linear_240_758)" fill-opacity="0.2"/>
<path d="M102.997 32.0819C103.206 32.5968 103.333 33.1421 103.369 33.6981L103.38 34.0272V85.3134C103.379 86.1999 103.151 87.0716 102.717 87.8446C102.283 88.6177 101.657 89.2664 100.9 89.7284H100.899L54.6855 117.972H54.6846C54.0443 118.363 53.3286 118.607 52.5879 118.694V62.8944L102.997 32.0819Z" stroke="url(#paint11_linear_240_758)" stroke-opacity="0.1" stroke-width="1.2"/>
</g>
<path d="M143.977 31.13H122.24L138.945 14.4246L133.443 8.9223L110.095 32.2701C108.574 33.7916 108.574 36.2509 110.095 37.7724L133.443 61.1203L138.945 55.618L122.24 38.9126H143.977C154.705 38.9126 163.433 47.6408 163.433 58.3691H171.216C171.216 43.3487 158.993 31.13 143.977 31.13Z" fill="url(#paint12_linear_240_758)"/>
<path d="M45.559 117.88L40.0567 123.383L56.7621 140.088H35.0253C24.2969 140.088 15.5687 131.36 15.5687 120.631H7.78613C7.78613 135.652 20.0087 147.871 35.0253 147.871H56.7621L40.0567 164.576L45.559 170.078L68.9069 146.73C70.4284 145.209 70.4284 142.75 68.9069 141.228L45.559 117.88Z" fill="url(#paint13_linear_240_758)"/>
<path d="M126.792 164.083C147.387 164.083 164.083 147.387 164.083 126.792C164.083 106.196 147.387 89.5 126.792 89.5C106.196 89.5 89.5 106.196 89.5 126.792C89.5 147.387 106.196 164.083 126.792 164.083Z" fill="url(#paint14_linear_240_758)"/>
<foreignObject x="50.583" y="50.5833" width="152.417" height="152.417"><div xmlns="http://www.w3.org/1999/xhtml" style="backdrop-filter:blur(12px);clip-path:url(#bgblur_6_240_758_clip_path);height:100%;width:100%"></div></foreignObject><g filter="url(#filter5_i_240_758)" data-figma-bg-blur-radius="24">
<path d="M126.791 179C155.625 179 179 155.626 179 126.792C179 97.9578 155.625 74.5833 126.791 74.5833C97.9575 74.5833 74.583 97.9578 74.583 126.792C74.583 155.626 97.9575 179 126.791 179Z" fill="#1D1D1D" fill-opacity="0.05"/>
<path d="M126.791 179C155.625 179 179 155.626 179 126.792C179 97.9578 155.625 74.5833 126.791 74.5833C97.9575 74.5833 74.583 97.9578 74.583 126.792C74.583 155.626 97.9575 179 126.791 179Z" fill="url(#paint15_linear_240_758)" fill-opacity="0.2"/>
<path d="M126.791 75.1829C155.293 75.1829 178.399 98.289 178.399 126.791C178.399 155.294 155.294 178.4 126.791 178.4C98.2887 178.4 75.1826 155.294 75.1826 126.791C75.1828 98.2891 98.2888 75.1831 126.791 75.1829Z" stroke="url(#paint16_linear_240_758)" stroke-opacity="0.1" stroke-width="1.2"/>
</g>
</g>
<defs>
<filter id="filter0_i_240_758" x="0.389425" y="1.86825" width="103.218" height="115.598" filterUnits="userSpaceOnUse" color-interpolation-filters="sRGB">
<feFlood flood-opacity="0" result="BackgroundImageFix"/>
<feBlend mode="normal" in="SourceGraphic" in2="BackgroundImageFix" result="shape"/>
<feColorMatrix in="SourceAlpha" type="matrix" values="0 0 0 0 0 0 0 0 0 0 0 0 0 0 0 0 0 0 127 0" result="hardAlpha"/>
<feOffset dy="1.61299"/>
<feGaussianBlur stdDeviation="3.22599"/>
<feComposite in2="hardAlpha" operator="arithmetic" k2="-1" k3="1"/>
<feColorMatrix type="matrix" values="0 0 0 0 1 0 0 0 0 1 0 0 0 0 1 0 0 0 0.4 0"/>
<feBlend mode="normal" in2="shape" result="effect1_innerShadow_240_758"/>
</filter>
<clipPath id="bgblur_1_240_758_clip_path" transform="translate(-0.389425 -1.86825)"><path d="M93.3469 36.7255C92.9585 36.0185 92.3914 35.4257 91.7023 35.0063L54.4302 12.2285C53.6992 11.7823 52.8593 11.5462 52.0029 11.5462C51.1465 11.5462 50.3066 11.7823 49.5756 12.2285L12.3035 35.0063C11.6144 35.4257 11.0473 36.0185 10.6589 36.7255L52.0029 61.9959L93.3469 36.7255Z"/>
<path d="M10.6589 36.7255C10.2746 37.4167 10.0681 38.1982 10.0674 38.989V80.3516C10.0678 81.1497 10.2733 81.9343 10.6641 82.6301C11.0548 83.326 11.6178 83.9099 12.299 84.3257L49.5711 107.104C50.3019 107.551 51.1418 107.788 51.9985 107.788L52.0029 61.9959L10.6589 36.7255Z"/>
<path d="M93.3469 36.7255C93.7312 37.4167 93.9288 38.1982 93.9295 38.989V80.3516C93.9291 81.1497 93.7236 81.9343 93.3329 82.6301C92.9421 83.326 92.3791 83.9099 91.6979 84.3257L54.4258 107.104C53.695 107.551 52.8552 107.788 51.9985 107.788L52.0029 61.9959L93.3469 36.7255Z"/>
</clipPath><filter id="filter1_i_240_758" x="0.389425" y="1.86825" width="103.218" height="115.598" filterUnits="userSpaceOnUse" color-interpolation-filters="sRGB">
<feFlood flood-opacity="0" result="BackgroundImageFix"/>
<feBlend mode="normal" in="SourceGraphic" in2="BackgroundImageFix" result="shape"/>
<feColorMatrix in="SourceAlpha" type="matrix" values="0 0 0 0 0 0 0 0 0 0 0 0 0 0 0 0 0 0 127 0" result="hardAlpha"/>
<feOffset dy="1.61299"/>
<feGaussianBlur stdDeviation="3.22599"/>
<feComposite in2="hardAlpha" operator="arithmetic" k2="-1" k3="1"/>
<feColorMatrix type="matrix" values="0 0 0 0 1 0 0 0 0 1 0 0 0 0 1 0 0 0 0.4 0"/>
<feBlend mode="normal" in2="shape" result="effect1_innerShadow_240_758"/>
</filter>
<clipPath id="bgblur_2_240_758_clip_path" transform="translate(-0.389425 -1.86825)"><path d="M93.3469 36.7255C92.9585 36.0185 92.3914 35.4257 91.7023 35.0063L54.4302 12.2285C53.6992 11.7823 52.8593 11.5462 52.0029 11.5462C51.1465 11.5462 50.3066 11.7823 49.5756 12.2285L12.3035 35.0063C11.6144 35.4257 11.0473 36.0185 10.6589 36.7255L52.0029 61.9959L93.3469 36.7255Z"/>
<path d="M10.6589 36.7255C10.2746 37.4167 10.0681 38.1982 10.0674 38.989V80.3516C10.0678 81.1497 10.2733 81.9343 10.6641 82.6301C11.0548 83.326 11.6178 83.9099 12.299 84.3257L49.5711 107.104C50.3019 107.551 51.1418 107.788 51.9985 107.788L52.0029 61.9959L10.6589 36.7255Z"/>
<path d="M93.3469 36.7255C93.7312 37.4167 93.9288 38.1982 93.9295 38.989V80.3516C93.9291 81.1497 93.7236 81.9343 93.3329 82.6301C92.9421 83.326 92.3791 83.9099 91.6979 84.3257L54.4258 107.104C53.695 107.551 52.8552 107.788 51.9985 107.788L52.0029 61.9959L93.3469 36.7255Z"/>
</clipPath><filter id="filter2_i_240_758" x="-23.2617" y="-24" width="150.527" height="110.554" filterUnits="userSpaceOnUse" color-interpolation-filters="sRGB">
<feFlood flood-opacity="0" result="BackgroundImageFix"/>
<feBlend mode="normal" in="SourceGraphic" in2="BackgroundImageFix" result="shape"/>
<feColorMatrix in="SourceAlpha" type="matrix" values="0 0 0 0 0 0 0 0 0 0 0 0 0 0 0 0 0 0 127 0" result="hardAlpha"/>
<feOffset dy="8"/>
<feGaussianBlur stdDeviation="6"/>
<feComposite in2="hardAlpha" operator="arithmetic" k2="-1" k3="1"/>
<feColorMatrix type="matrix" values="0 0 0 0 1 0 0 0 0 1 0 0 0 0 1 0 0 0 0.15 0"/>
<feBlend mode="normal" in2="shape" result="effect1_innerShadow_240_758"/>
</filter>
<clipPath id="bgblur_3_240_758_clip_path" transform="translate(23.2617 24)"><path d="M103.266 31.2206C102.784 30.344 102.081 29.609 101.226 29.089L55.0117 0.84598C54.1053 0.292714 53.0639 0 52.002 0C50.94 0 49.8987 0.292714 48.9922 0.84598L2.77751 29.089C1.92305 29.609 1.21992 30.344 0.738281 31.2206L52.002 62.5542L103.266 31.2206Z"/>
</clipPath><filter id="filter3_i_240_758" x="-24" y="7.22449" width="99.9912" height="136.108" filterUnits="userSpaceOnUse" color-interpolation-filters="sRGB">
<feFlood flood-opacity="0" result="BackgroundImageFix"/>
<feBlend mode="normal" in="SourceGraphic" in2="BackgroundImageFix" result="shape"/>
<feColorMatrix in="SourceAlpha" type="matrix" values="0 0 0 0 0 0 0 0 0 0 0 0 0 0 0 0 0 0 127 0" result="hardAlpha"/>
<feOffset dy="8"/>
<feGaussianBlur stdDeviation="6"/>
<feComposite in2="hardAlpha" operator="arithmetic" k2="-1" k3="1"/>
<feColorMatrix type="matrix" values="0 0 0 0 1 0 0 0 0 1 0 0 0 0 1 0 0 0 0.15 0"/>
<feBlend mode="normal" in2="shape" result="effect1_innerShadow_240_758"/>
</filter>
<clipPath id="bgblur_4_240_758_clip_path" transform="translate(24 -7.22449)"><path d="M0.727882 31.2245C0.2514 32.0815 0.00090868 33.0457 0 34.0262L0 85.3131C0.000550975 86.3026 0.255305 87.2755 0.739838 88.1384C1.22437 89.0012 1.92244 89.7251 2.76711 90.2407L48.9818 118.484C49.8879 119.038 50.9293 119.332 51.9916 119.333V62.5581L0.727882 31.2245Z"/>
</clipPath><filter id="filter4_i_240_758" x="27.9883" y="7.22449" width="99.9912" height="136.108" filterUnits="userSpaceOnUse" color-interpolation-filters="sRGB">
<feFlood flood-opacity="0" result="BackgroundImageFix"/>
<feBlend mode="normal" in="SourceGraphic" in2="BackgroundImageFix" result="shape"/>
<feColorMatrix in="SourceAlpha" type="matrix" values="0 0 0 0 0 0 0 0 0 0 0 0 0 0 0 0 0 0 127 0" result="hardAlpha"/>
<feOffset dy="8"/>
<feGaussianBlur stdDeviation="6"/>
<feComposite in2="hardAlpha" operator="arithmetic" k2="-1" k3="1"/>
<feColorMatrix type="matrix" values="0 0 0 0 1 0 0 0 0 1 0 0 0 0 1 0 0 0 0.15 0"/>
<feBlend mode="normal" in2="shape" result="effect1_innerShadow_240_758"/>
</filter>
<clipPath id="bgblur_5_240_758_clip_path" transform="translate(-27.9883 -7.22449)"><path d="M103.252 31.2245C103.728 32.0815 103.979 33.0457 103.98 34.0262V85.3131C103.979 86.3026 103.725 87.2755 103.24 88.1384C102.755 89.0012 102.057 89.7251 101.213 90.2407L54.998 118.484C54.0919 119.038 53.0505 119.332 51.9883 119.333V62.5581L103.252 31.2245Z"/>
</clipPath><filter id="filter5_i_240_758" x="50.583" y="50.5833" width="152.417" height="152.417" filterUnits="userSpaceOnUse" color-interpolation-filters="sRGB">
<feFlood flood-opacity="0" result="BackgroundImageFix"/>
<feBlend mode="normal" in="SourceGraphic" in2="BackgroundImageFix" result="shape"/>
<feColorMatrix in="SourceAlpha" type="matrix" values="0 0 0 0 0 0 0 0 0 0 0 0 0 0 0 0 0 0 127 0" result="hardAlpha"/>
<feOffset dy="8"/>
<feGaussianBlur stdDeviation="6"/>
<feComposite in2="hardAlpha" operator="arithmetic" k2="-1" k3="1"/>
<feColorMatrix type="matrix" values="0 0 0 0 1 0 0 0 0 1 0 0 0 0 1 0 0 0 0.15 0"/>
<feBlend mode="normal" in2="shape" result="effect1_innerShadow_240_758"/>
</filter>
<clipPath id="bgblur_6_240_758_clip_path" transform="translate(-50.583 -50.5833)"><path d="M126.791 179C155.625 179 179 155.626 179 126.792C179 97.9578 155.625 74.5833 126.791 74.5833C97.9575 74.5833 74.583 97.9578 74.583 126.792C74.583 155.626 97.9575 179 126.791 179Z"/>
</clipPath><linearGradient id="paint0_linear_240_758" x1="13.5616" y1="30.7947" x2="105.397" y2="41.9088" gradientUnits="userSpaceOnUse">
<stop stop-color="#8AE6CF"/>
<stop offset="1" stop-color="#7C3AE7"/>
</linearGradient>
<linearGradient id="paint1_linear_240_758" x1="13.5616" y1="30.7947" x2="105.397" y2="41.9088" gradientUnits="userSpaceOnUse">
<stop stop-color="#8AE6CF"/>
<stop offset="1" stop-color="#7C3AE7"/>
</linearGradient>
<linearGradient id="paint2_linear_240_758" x1="13.5616" y1="30.7947" x2="105.397" y2="41.9088" gradientUnits="userSpaceOnUse">
<stop stop-color="#8AE6CF"/>
<stop offset="1" stop-color="#7C3AE7"/>
</linearGradient>
<linearGradient id="paint3_linear_240_758" x1="13.5616" y1="30.7947" x2="105.397" y2="41.9088" gradientUnits="userSpaceOnUse">
<stop stop-color="#8AE6CF"/>
<stop offset="1" stop-color="#7C3AE7"/>
</linearGradient>
<linearGradient id="paint4_linear_240_758" x1="13.5616" y1="30.7947" x2="105.397" y2="41.9088" gradientUnits="userSpaceOnUse">
<stop stop-color="#8AE6CF"/>
<stop offset="1" stop-color="#7C3AE7"/>
</linearGradient>
<linearGradient id="paint5_linear_240_758" x1="13.5616" y1="30.7947" x2="105.397" y2="41.9088" gradientUnits="userSpaceOnUse">
<stop stop-color="#8AE6CF"/>
<stop offset="1" stop-color="#7C3AE7"/>
</linearGradient>
<linearGradient id="paint6_linear_240_758" x1="5.01026" y1="12.5109" x2="113.317" y2="37.166" gradientUnits="userSpaceOnUse">
<stop stop-color="#66FECB"/>
<stop offset="1" stop-color="#8940FF"/>
</linearGradient>
<linearGradient id="paint7_linear_240_758" x1="3.94226" y1="2.84337" x2="103.266" y2="2.84338" gradientUnits="userSpaceOnUse">
<stop stop-color="#C8A6FF"/>
<stop offset="1" stop-color="#69CFB5"/>
</linearGradient>
<linearGradient id="paint8_linear_240_758" x1="2.16632" y1="48.8462" x2="59.5493" y2="53.5491" gradientUnits="userSpaceOnUse">
<stop stop-color="#66FECB"/>
<stop offset="1" stop-color="#8940FF"/>
</linearGradient>
<linearGradient id="paint9_linear_240_758" x1="1.62474" y1="35.2294" x2="51.9916" y2="35.2294" gradientUnits="userSpaceOnUse">
<stop stop-color="#C8A6FF"/>
<stop offset="1" stop-color="#69CFB5"/>
</linearGradient>
<linearGradient id="paint10_linear_240_758" x1="54.1546" y1="48.8462" x2="111.538" y2="53.5491" gradientUnits="userSpaceOnUse">
<stop stop-color="#66FECB"/>
<stop offset="1" stop-color="#8940FF"/>
</linearGradient>
<linearGradient id="paint11_linear_240_758" x1="53.613" y1="35.2294" x2="103.98" y2="35.2294" gradientUnits="userSpaceOnUse">
<stop stop-color="#C8A6FF"/>
<stop offset="1" stop-color="#69CFB5"/>
</linearGradient>
<linearGradient id="paint12_linear_240_758" x1="111.548" y1="19.3619" x2="178.88" y2="30.5166" gradientUnits="userSpaceOnUse">
<stop stop-color="#8AE6CF"/>
<stop offset="1" stop-color="#7C3AE7"/>
</linearGradient>
<linearGradient id="paint13_linear_240_758" x1="10.3804" y1="128.32" x2="77.7122" y2="139.475" gradientUnits="userSpaceOnUse">
<stop stop-color="#8AE6CF"/>
<stop offset="1" stop-color="#7C3AE7"/>
</linearGradient>
<linearGradient id="paint14_linear_240_758" x1="92.6076" y1="104.417" x2="173.91" y2="115.709" gradientUnits="userSpaceOnUse">
<stop stop-color="#8AE6CF"/>
<stop offset="1" stop-color="#7C3AE7"/>
</linearGradient>
<linearGradient id="paint15_linear_240_758" x1="78.9337" y1="95.4667" x2="192.757" y2="111.275" gradientUnits="userSpaceOnUse">
<stop stop-color="#66FECB"/>
<stop offset="1" stop-color="#8940FF"/>
</linearGradient>
<linearGradient id="paint16_linear_240_758" x1="77.846" y1="79.3295" x2="179" y2="79.3295" gradientUnits="userSpaceOnUse">
<stop stop-color="#C8A6FF"/>
<stop offset="1" stop-color="#69CFB5"/>
</linearGradient>
<clipPath id="clip0_240_758">
<rect width="179" height="179" fill="white"/>
</clipPath>
</defs>
</svg>
